<?xml version="1.0" encoding="utf-8"?>
<!-- Generator: Adobe Illustrator 27.9.6, SVG Export Plug-In . SVG Version: 9.03 Build 54986)  -->
<svg version="1.1" id="Calque_1" xmlns="http://www.w3.org/2000/svg" xmlns:xlink="http://www.w3.org/1999/xlink" x="0px" y="0px"
	 viewBox="0 0 1920 115.9" style="enable-background:new 0 0 1920 115.9;" xml:space="preserve">
<style type="text/css">
	.st0{fill:#EACA7A;}
</style>
<path class="st0" d="M1919,98c-4-19.9-13.2-46.6-34.2-56.3c3.1,7.3,3.7,25.4,5.2,43.2c-5-8.8-8.7-18-10.7-28.1
	c-3.3,7.7-5.4,14.8-6.5,21.4c-1.6-2.4-3.3-4.8-5.3-7.2c-1.4,5.1-3.6,10.3-6.1,15.9c1.8-20.4,1.9-40,5.4-53.4
	c-10.6,8-18.4,18.3-24.1,29.2c-2.1-6.8-4.7-13.9-7.9-20.9c-2.7,11.8-7,24.4-11.5,38.4c1.4-20.3,1.8-39.6,4.2-53
	c-8.2,10-13.9,23.3-17.9,36.8c-4.3-8.5-7.6-17.4-9.5-26.9c-3.1,7-5.2,13.6-6.6,19.8c-2.6-13.7-4.1-28.9-4.1-46.5
	c-7.6,12.7-11.7,29.2-13.7,45.6c-5.7-9.7-13.1-19.7-22.9-29.6c4.7,13,2.8,27.3,1.7,43.1c-1.9-1-3.8-2-5.9-3
	c3.1,7.5,4.1,14.8,5.4,22.9c0,0.5,0,1,0.1,1.5c-13.5-16-23.3-33.3-27.3-53.2c-8.2,18.8-10.1,34.9-7.6,47.6c-3-1.1-6.1-2-9.4-2.4
	c-1.3-1.2-2.7-2.4-4.1-3.6c3.3-7,5.7-14.9,6.3-24.3c-2.8,3.8-6.1,6.8-9.9,9.4c-0.9-8.9-3.5-17.5-8.7-24.7c-0.6,6.6-3.9,16.3-7.7,27
	c-0.7-0.3-1.3-0.7-2.1-1c0.5,1.1,0.9,2.2,1.2,3.3c-0.7,1.9-1.3,3.9-2,5.8c-2,1-4,2-6.1,3.1c3.3-15.9,3.9-33.6-3-50.7
	c-2.2,17.9-13.1,33.9-22.1,53.5c2.3-19.5,1.9-40.5-6.1-55.4c-1.3,11.4-7.4,29.9-13.3,49.4c-1.4-25.9-3.9-47.5-3.2-70.4
	c-8.8,14.3-14.7,29.6-18.6,44.5c-5.3-6.6-11.7-12.1-19.4-15.6c3.8,9.3,4.5,32.5,6.4,55c-2.4,2.4-4.6,4.8-6.6,7.2
	c-0.6-27.1-3.7-48.2-2.6-70.6c-14.5,20.3-21.2,42.7-24.1,62.2c-2.1-3.2-4.3-6.5-6.9-9.9c-1.4,5.1-3.6,10.3-6.1,15.9
	c1.8-20.4,1.9-40,5.4-53.4c-10.6,8-18.4,18.3-24.1,29.2c-2.1-6.8-4.7-13.9-7.9-20.9c-2.7,11.8-7,24.4-11.5,38.4
	c1.4-20.3,1.8-39.6,4.2-53c-9.6,11.7-15.8,27.9-19.7,43.7c-4.2-20-12.1-40.8-25.7-53.3c2.8,24,6.6,47.2,8.3,68.2
	c-5-6.2-11.2-12.8-19.1-19.4c3.1,7,4.8,13.5,6.8,20.7c-6.7-7.1-16-14.2-29.4-20.4c3.7,9,4.5,17.8,6.2,27.9c-2.9-1.5-5.9-2.9-9.1-3.8
	c-6.2-20.1-13.1-37.4-16.9-53.2c-3.4,7.1-6.2,14.1-8.4,20.9c-6-10.9-14.2-21.2-25.5-29.2c3.7,13.4,3.8,33,5.7,53.4
	c-2.6-5.6-5-10.8-6.4-15.9c-2.8,3.3-5.2,6.6-7.4,9.8c-3-19.5-10.1-41.8-25.4-62.1c1.2,22.4-2.1,43.5-2.7,70.6
	c-2.1-2.4-4.4-4.8-7-7.2c2-22.5,2.7-45.8,6.8-55c-8.1,3.6-14.9,9.1-20.5,15.6c-4.2-14.9-10.4-30.1-19.7-44.5
	c0.8,22.8-1.9,44.5-3.4,70.4c-6.2-19.5-12.7-38-14.1-49.4c-8.4,14.9-8.9,35.9-6.5,55.4c-9.5-19.6-21-35.6-23.3-53.5
	c-7.3,17.1-6.7,34.8-3.2,50.7c-2.2-1.1-4.3-2.1-6.4-3.1c-0.7-2-1.4-3.9-2.1-5.8c0.4-1.1,0.8-2.2,1.3-3.3c-0.8,0.3-1.4,0.7-2.2,1
	c-4-10.7-7.5-20.4-8.1-27c-5.5,7.2-8.2,15.8-9.2,24.7c-4-2.6-7.5-5.6-10.5-9.4c0.7,9.3,3.2,17.3,6.7,24.3c-1.5,1.2-3,2.4-4.4,3.6
	c-3.5,0.5-6.8,1.3-9.9,2.4c2.6-12.7,0.6-28.7-8.1-47.6c-4.2,20-14.7,37.4-29.1,53.5c1.5-8.7,2.5-16.6,6-24.6
	c-7.6,3.3-14,7-19.4,10.7c-0.8-19.3-4.6-36.5,1.3-51.8c-12,11.5-20.6,23.2-26.9,34.3c-6.3-20.7-15.4-41.8-27.8-55.3
	c5.4,22.6,7.9,42.4,8.6,60.5c-4.2-13.8-10.3-27.5-19.2-37.8c2.5,13.4,3,32.7,4.5,53c-4.7-14-9.3-26.6-12.2-38.4
	c-3.4,7.1-6.2,14.1-8.4,20.9c-6-10.9-14.2-21.2-25.5-29.2c3.7,13.4,3.8,33,5.7,53.4c-2.6-5.6-5-10.8-6.4-15.9
	c-2.9,3.5-5.4,6.9-7.6,10.2c-3.1-19.2-8.8-41.3-19.1-56.3c1.1,7.1,1.8,15.8,2.4,25.4c-6.3-9.3-14.2-18.3-24.2-26
	c5.3,18.8,6.9,37.6,10.8,59.8c-5.8-6.5-12.3-12.7-19.2-17.6c-6.2-12.9-15.2-25.4-28.3-34.7c3.7,13.5,3.8,33.2,5.7,53.7
	c-3.6-7.8-8.5-16.1-14.5-24.3c-0.3,7.7-1.4,16-2.6,24.8c-1.2-8.8-2.3-17.1-2.6-24.8c-6,8.2-10.8,16.5-14.5,24.3
	c1.9-20.5,2-40.2,5.7-53.7c-13.2,9.3-22.1,21.8-28.3,34.7c-6.9,4.9-13.4,11.1-19.2,17.6c3.9-22.2,5.5-41.1,10.8-59.8
	c-10,7.7-17.9,16.7-24.2,26c0.6-9.6,1.3-18.4,2.4-25.4c-10.3,14.9-16,37.1-19.1,56.3c-2.2-3.3-4.7-6.7-7.6-10.2
	c-1.5,5.1-3.8,10.3-6.4,15.9c1.9-20.4,2-40,5.7-53.4c-11.3,8-19.5,18.3-25.5,29.2c-2.2-6.8-5-13.9-8.4-20.9
	c-2.9,11.8-7.4,24.4-12.2,38.4c1.4-20.3,2-39.6,4.5-53c-8.9,10.2-15,23.9-19.2,37.8c0.7-18.1,3.2-37.9,8.6-60.5
	c-12.3,13.5-21.5,34.6-27.8,55.3c-5.4-11.4-14-23.1-26.1-34.6c5.9,15.3,2.1,32.5,1.3,51.8c-5.4-3.7-11.8-7.3-19.4-10.7
	c3.5,8,4.5,15.8,6,24.6c-14.4-16.1-24.9-33.4-29.1-53.5c-8.7,18.8-10.6,34.9-8.1,47.6c-3.2-1.1-6.5-2-9.9-2.4
	c-1.4-1.2-2.8-2.4-4.4-3.6c3.5-7,6-14.9,6.7-24.3c-2.9,3.8-6.5,6.8-10.5,9.4c-1-8.9-3.7-17.5-9.2-24.7c-0.6,6.6-4.1,16.3-8.1,27
	c-0.7-0.3-1.4-0.7-2.2-1c0.5,1.1,0.9,2.2,1.3,3.3c-0.7,1.9-1.4,3.9-2.1,5.8c-2.1,1-4.2,2-6.4,3.1c3.5-15.9,4.1-33.6-3.2-50.7
	c-2.3,17.9-13.9,33.9-23.3,53.5c2.4-19.5,2-40.5-6.5-55.4c-1.4,11.4-7.9,29.9-14.1,49.4c-1.5-25.9-4.1-47.5-3.4-70.4
	c-9.3,14.3-15.6,29.6-19.7,44.5c-5.6-6.6-12.4-12.1-20.5-15.6c4.1,9.3,4.8,32.5,6.8,55c-2.5,2.4-4.8,4.8-7,7.2
	c-0.6-27.1-3.9-48.2-2.7-70.6C553,40.7,545.9,63.1,543,82.5c-2.2-3.2-4.6-6.5-7.4-9.8c-1.5,5.1-3.8,10.3-6.4,15.9
	c1.9-20.4,2-40,5.7-53.4c-11.3,8-19.5,18.3-25.5,29.2c-2.2-6.8-5-13.9-8.4-20.9c-3.8,15.8-10.7,33.1-16.9,53.2
	c-3.2,1-6.2,2.3-9.1,3.8c1.8-10.1,2.5-18.9,6.2-27.9C467.9,78.8,458.5,86,451.8,93c2-7.1,3.7-13.6,6.8-20.7
	c-7.9,6.6-14.1,13.2-19.1,19.4c1.7-21.1,5.5-44.3,8.3-68.2c-13.6,12.5-21.5,33.3-25.7,53.3c-4-15.8-10.1-32-19.7-43.7
	c2.4,13.4,2.9,32.7,4.2,53c-4.4-14-8.8-26.6-11.5-38.4c-3.2,7.1-5.8,14.1-7.9,20.9c-5.7-10.9-13.4-21.2-24.1-29.2
	c3.5,13.4,3.6,33,5.4,53.4c-2.5-5.6-4.7-10.8-6.1-15.9c-2.7,3.4-4.9,6.7-6.9,9.9c-2.8-19.5-9.5-41.9-24.1-62.2
	c1.2,22.4-2,43.5-2.6,70.6c-2-2.4-4.2-4.8-6.6-7.2c1.9-22.5,2.6-45.8,6.4-55c-7.7,3.6-14,9.1-19.4,15.6
	c-3.9-14.9-9.8-30.1-18.6-44.5c0.7,22.8-1.8,44.5-3.2,70.4c-5.9-19.5-12-38-13.3-49.4c-8,14.9-8.4,35.9-6.1,55.4
	c-8.9-19.6-19.8-35.6-22.1-53.5c-6.9,17.1-6.3,34.8-3,50.7c-2-1.1-4.1-2.1-6.1-3.1c-0.7-2-1.4-3.9-2-5.8c0.4-1.1,0.8-2.2,1.2-3.3
	c-0.7,0.3-1.4,0.7-2.1,1c-3.7-10.7-7-20.4-7.7-27c-5.2,7.2-7.8,15.8-8.7,24.7c-3.8-2.6-7.1-5.6-9.9-9.4c0.7,9.3,3,17.3,6.3,24.3
	c-1.5,1.2-2.8,2.4-4.1,3.6c-3.3,0.5-6.4,1.3-9.4,2.4c2.4-12.7,0.6-28.8-7.6-47.6c-4,19.9-13.8,37.2-27.3,53.2c0-0.5,0-1,0.1-1.5
	c1.3-8.1,2.3-15.4,5.4-22.9c-2.1,1-4,2-5.9,3c-1.2-15.8-3-30.1,1.7-43.1c-9.8,9.9-17.2,20-22.9,29.6c-2-16.4-6.1-32.9-13.7-45.6
	c0.1,17.5-1.5,32.7-4.1,46.5c-1.4-6.2-3.6-12.8-6.6-19.8c-1.9,9.5-5.1,18.4-9.5,26.9C106,50.3,100.4,37,92.1,27
	c2.4,13.4,2.9,32.7,4.2,53c-4.4-14-8.8-26.6-11.5-38.4c-3.2,7.1-5.8,14.1-7.9,20.9c-5.7-10.9-13.4-21.2-24.1-29.2
	c3.5,13.4,3.6,33,5.4,53.4c-2.5-5.6-4.7-10.8-6.1-15.9c-1.9,2.4-3.7,4.8-5.3,7.2c-1.1-6.6-3.2-13.7-6.5-21.4
	C38.7,66.8,35,76.1,30,84.9C31.4,67,32.1,49,35.1,41.6C14.2,51.3,5,78.1,1,98c-0.3-2.7-0.6-5.2-1-7.8v25.7h960h960V90.2
	C1919.7,92.7,1919.3,95.3,1919,98z"/>
</svg>
